<?xml version="1.0" standalone="no"?>
<!DOCTYPE svg PUBLIC "-//W3C//DTD SVG 20010904//EN"
 "http://www.w3.org/TR/2001/REC-SVG-20010904/DTD/svg10.dtd">
<svg version="1.0" xmlns="http://www.w3.org/2000/svg"
 width="113.000000pt" height="113.000000pt" viewBox="0 0 113.000000 113.000000"
 preserveAspectRatio="xMidYMid meet">
<metadata>
Created by potrace 1.14, written by Peter Selinger 2001-2017
</metadata>
<g transform="translate(0.000000,113.000000) scale(0.100000,-0.100000)"
fill="#000000" stroke="none">
<path d="M997 952 c-10 -10 -17 -24 -17 -30 0 -7 -4 -12 -9 -12 -5 0 -11 -9
-14 -21 -4 -16 -11 -19 -26 -14 -36 11 -60 -3 -57 -33 4 -35 -11 -44 -40 -25
-16 10 -28 12 -41 5 -10 -6 -31 -8 -46 -5 -27 5 -39 -11 -14 -20 8 -3 6 -7 -5
-12 -36 -15 -48 1 -49 67 l-1 63 -10 -52 -9 -52 -55 -7 c-48 -6 -54 -9 -54
-30 0 -14 -6 -24 -14 -24 -17 0 -38 24 -29 33 16 17 -30 5 -48 -12 -12 -11
-62 -27 -129 -41 -62 -13 -117 -30 -128 -40 -10 -10 -29 -21 -42 -25 -32 -10
-53 -32 -40 -40 18 -11 10 -33 -14 -37 -23 -5 -25 -2 -31 54 -11 93 -26 126
-20 45 l4 -68 -19 23 c-11 13 -19 19 -20 15 0 -14 22 -52 36 -60 21 -12 17
-26 -11 -33 -34 -8 -31 -30 5 -43 24 -8 30 -16 30 -39 0 -42 11 -92 20 -92 5
0 7 8 5 18 -2 9 -6 35 -9 57 l-5 39 20 -33 c23 -39 34 -36 19 4 -6 15 -9 29
-7 31 2 3 23 -3 47 -11 23 -8 46 -13 50 -10 5 3 11 1 15 -4 3 -6 21 -5 45 4
40 14 40 14 77 -23 31 -30 38 -34 41 -20 2 12 21 23 55 32 29 8 85 24 126 35
82 22 89 27 74 42 -7 7 -55 -2 -151 -29 -109 -30 -144 -36 -152 -27 -7 9 24
21 129 48 77 19 149 33 160 30 12 -3 21 -1 21 4 0 5 17 15 37 22 21 8 43 20
51 27 7 8 20 14 28 14 8 0 14 4 14 9 0 5 18 11 40 15 22 3 40 11 40 16 0 13
43 13 57 -1 16 -16 47 19 32 37 -9 11 -8 14 8 14 10 0 24 5 30 11 9 9 20 9 43
0 33 -11 80 -6 80 9 0 9 -44 46 -61 52 -7 2 -8 21 -1 57 16 88 -18 140 -61 93z
m-192 -152 c3 -5 2 -10 -4 -10 -5 0 -13 5 -16 10 -3 6 -2 10 4 10 5 0 13 -4
16 -10z m-224 -77 c13 -16 12 -17 -3 -4 -10 7 -18 15 -18 17 0 8 8 3 21 -13z"/>
<path d="M203 868 c-6 -7 -13 -22 -17 -33 -6 -23 18 -111 30 -109 82 11 204
39 202 46 -2 5 -17 17 -33 26 -16 9 -36 23 -43 30 -15 13 -72 39 -107 48 -12
3 -26 -1 -32 -8z"/>
<path d="M611 495 c-25 -8 -48 -12 -53 -9 -4 3 -8 1 -8 -4 0 -5 -23 -14 -51
-20 -28 -7 -65 -19 -83 -27 -17 -8 -51 -21 -75 -28 -56 -16 -70 -41 -19 -33
19 3 42 8 50 11 9 4 19 2 22 -3 3 -6 14 -8 24 -6 9 3 30 -7 48 -23 16 -15 52
-46 79 -68 27 -21 59 -49 73 -62 13 -12 40 -27 60 -34 21 -6 42 -15 48 -20 6
-5 14 -6 17 -2 4 3 12 1 19 -4 8 -7 22 -7 36 -2 21 8 23 14 21 81 -2 57 -8 80
-24 103 -12 17 -28 44 -35 61 -24 55 -34 56 -176 14 -76 -22 -133 -34 -138
-29 -13 12 -14 12 115 48 129 36 145 44 135 60 -9 14 -30 13 -85 -4z"/>
</g>
</svg>
